<?xml version="1.0" encoding="UTF-8"?> <svg xmlns="http://www.w3.org/2000/svg" width="186" height="40" viewBox="0 0 186 40" fill="none"><path fill-rule="evenodd" clip-rule="evenodd" d="M19.0001 6.0435C20.6569 6.0435 22.0001 4.69062 22.0001 3.02175C22.0001 1.35288 20.6569 0 19.0001 0C17.3434 0 16.0002 1.35288 16.0002 3.02175C16.0002 4.69062 17.3434 6.0435 19.0001 6.0435ZM9.97115 3.56528C9.36713 3.22727 8.63277 3.22727 8.02876 3.56528L1.0288 7.48237C0.393796 7.83765 0 8.51174 0 9.24335V16.9452C0 17.6768 0.393796 18.3509 1.0288 18.7062L8.02876 22.6232C8.63277 22.9613 9.36713 22.9613 9.97115 22.6232L16.6447 18.8888L10.9111 15.4237C10.392 15.8561 9.72627 16.116 9.00019 16.116C7.34346 16.116 6.00021 14.7631 6.00021 13.0942C6.00021 11.4254 7.34346 10.0725 9.00019 10.0725C10.6569 10.0725 12.0002 11.4254 12.0002 13.0942C12.0002 13.3005 11.9797 13.5019 11.9406 13.6966L17.9621 17.3357C17.987 17.2084 17.9999 17.0778 17.9999 16.9452V9.24335C17.9999 8.51174 17.6061 7.83765 16.9711 7.48237L9.97115 3.56528ZM21.3557 18.8889L27.0893 15.4238C27.6083 15.8562 28.2741 16.116 29 16.116C30.6568 16.116 32 14.7631 32 13.0942C32 11.4254 30.6568 10.0725 29 10.0725C27.3435 10.0725 26.0001 11.4254 26.0001 13.0942C26.0001 13.3005 26.0207 13.502 26.0597 13.6966L20.0379 17.3358C20.0131 17.2085 20.0001 17.0778 20.0001 16.9452V9.24335C20.0001 8.51174 20.3939 7.83765 21.0289 7.48237L28.0289 3.56528C28.6328 3.22727 29.3674 3.22727 29.9714 3.56528L36.9714 7.48237C37.6062 7.83765 38 8.51174 38 9.24335V16.9452C38 17.6768 37.6062 18.3509 36.9714 18.7062L29.9714 22.6232C29.3674 22.9613 28.6328 22.9613 28.0289 22.6232L21.3557 18.8889ZM18.0001 20.7046V27.3678C16.8351 27.7828 16.0004 28.9018 16.0004 30.2175C16.0004 31.8863 17.3437 33.2392 19.0004 33.2392C20.6571 33.2392 22.0003 31.8863 22.0003 30.2175C22.0003 28.9016 21.1655 27.7824 20.0001 27.3676V20.7044L26.9715 24.6057C27.6063 24.9609 28.0001 25.6349 28.0001 26.3666V34.0684C28.0001 34.8001 27.6063 35.4741 26.9715 35.8295L19.9716 39.7465C19.3676 40.0845 18.633 40.0845 18.029 39.7465L11.029 35.8295C10.394 35.4741 10.0002 34.8001 10.0002 34.0684V26.3666C10.0002 25.6349 10.394 24.9609 11.029 24.6057L18.0001 20.7046ZM36 27.1957C36 28.8646 34.6568 30.2175 33 30.2175C31.3434 30.2175 30 28.8646 30 27.1957C30 25.5269 31.3434 24.174 33 24.174C34.6568 24.174 36 25.5269 36 27.1957ZM5.00021 30.2175C6.65694 30.2175 8.0002 28.8646 8.0002 27.1957C8.0002 25.5269 6.65694 24.174 5.00021 24.174C3.34348 24.174 2.00023 25.5269 2.00023 27.1957C2.00023 28.8646 3.34348 30.2175 5.00021 30.2175Z" fill="#FFC107"></path><path d="M70.93 8.7C71.31 8.7 71.6 8.82 71.8 9.06C72.02 9.28 72.13 9.58 72.13 9.96V28.89C72.13 29.27 72.02 29.58 71.8 29.82C71.6 30.04 71.31 30.15 70.93 30.15C70.55 30.15 70.25 30.04 70.03 29.82C69.81 29.58 69.7 29.27 69.7 28.89V20.31H57.04V28.89C57.04 29.27 56.93 29.58 56.71 29.82C56.49 30.04 56.19 30.15 55.81 30.15C55.43 30.15 55.13 30.04 54.91 29.82C54.71 29.58 54.61 29.27 54.61 28.89V9.96C54.61 9.58 54.71 9.28 54.91 9.06C55.13 8.82 55.43 8.7 55.81 8.7C56.19 8.7 56.49 8.82 56.71 9.06C56.93 9.28 57.04 9.58 57.04 9.96V18.21H69.7V9.96C69.7 9.58 69.81 9.28 70.03 9.06C70.25 8.82 70.55 8.7 70.93 8.7ZM78.2144 30.15C77.8544 30.15 77.5544 30.05 77.3144 29.85C77.0944 29.63 76.9844 29.33 76.9844 28.95V16.29C76.9844 15.91 77.0944 15.62 77.3144 15.42C77.5544 15.2 77.8544 15.09 78.2144 15.09C78.5744 15.09 78.8644 15.2 79.0844 15.42C79.3044 15.62 79.4144 15.91 79.4144 16.29V28.95C79.4144 29.35 79.3044 29.65 79.0844 29.85C78.8644 30.05 78.5744 30.15 78.2144 30.15ZM78.2144 11.94C77.7344 11.94 77.3444 11.8 77.0444 11.52C76.7444 11.24 76.5944 10.87 76.5944 10.41C76.5944 9.97 76.7444 9.61 77.0444 9.33C77.3444 9.05 77.7344 8.91 78.2144 8.91C78.6944 8.91 79.0844 9.05 79.3844 9.33C79.6844 9.61 79.8344 9.97 79.8344 10.41C79.8344 10.87 79.6844 11.24 79.3844 11.52C79.0844 11.8 78.6944 11.94 78.2144 11.94ZM94.487 15.84C94.707 15.36 95.057 15.12 95.537 15.12C95.837 15.12 96.107 15.22 96.347 15.42C96.587 15.62 96.707 15.87 96.707 16.17C96.707 16.35 96.667 16.51 96.587 16.65L90.737 29.25C90.617 29.51 90.437 29.72 90.197 29.88C89.957 30.02 89.697 30.09 89.417 30.09C89.157 30.09 88.907 30.02 88.667 29.88C88.427 29.72 88.237 29.51 88.097 29.25L82.277 16.65C82.197 16.51 82.157 16.36 82.157 16.2C82.157 15.9 82.287 15.64 82.547 15.42C82.827 15.2 83.127 15.09 83.447 15.09C83.647 15.09 83.837 15.15 84.017 15.27C84.217 15.39 84.367 15.56 84.467 15.78L89.477 27.03L94.487 15.84ZM110.501 26.61C110.721 26.61 110.911 26.7 111.071 26.88C111.231 27.06 111.311 27.29 111.311 27.57C111.311 28.07 110.961 28.53 110.261 28.95C109.541 29.37 108.781 29.69 107.981 29.91C107.181 30.11 106.401 30.21 105.641 30.21C103.381 30.21 101.591 29.54 100.271 28.2C98.9714 26.86 98.3214 25.01 98.3214 22.65C98.3214 21.15 98.6114 19.83 99.1914 18.69C99.7714 17.53 100.581 16.63 101.621 15.99C102.681 15.35 103.881 15.03 105.221 15.03C107.121 15.03 108.631 15.65 109.751 16.89C110.871 18.13 111.431 19.81 111.431 21.93C111.431 22.33 111.351 22.62 111.191 22.8C111.031 22.98 110.771 23.07 110.411 23.07H100.751C100.931 26.51 102.561 28.23 105.641 28.23C106.421 28.23 107.091 28.13 107.651 27.93C108.211 27.71 108.811 27.42 109.451 27.06C109.971 26.76 110.321 26.61 110.501 26.61ZM105.251 16.92C103.971 16.92 102.941 17.32 102.161 18.12C101.401 18.92 100.951 20.05 100.811 21.51H109.301C109.261 20.03 108.891 18.9 108.191 18.12C107.491 17.32 106.511 16.92 105.251 16.92ZM116.602 30.15C116.222 30.15 115.922 30.04 115.702 29.82C115.482 29.58 115.372 29.27 115.372 28.89V10.05C115.372 9.69 115.482 9.4 115.702 9.18C115.942 8.96 116.252 8.85 116.632 8.85H123.742C125.962 8.85 127.682 9.39 128.902 10.47C130.142 11.55 130.762 13.08 130.762 15.06C130.762 17.04 130.142 18.58 128.902 19.68C127.662 20.78 125.942 21.33 123.742 21.33H117.832V28.89C117.832 29.27 117.722 29.58 117.502 29.82C117.282 30.04 116.982 30.15 116.602 30.15ZM123.502 19.29C126.722 19.29 128.332 17.88 128.332 15.06C128.332 12.28 126.722 10.89 123.502 10.89H117.832V19.29H123.502ZM141.285 15.09C142.125 15.03 142.545 15.37 142.545 16.11C142.545 16.43 142.455 16.69 142.275 16.89C142.095 17.07 141.785 17.18 141.345 17.22L140.445 17.31C139.105 17.43 138.105 17.91 137.445 18.75C136.805 19.57 136.485 20.54 136.485 21.66V28.95C136.485 29.35 136.375 29.65 136.155 29.85C135.935 30.05 135.645 30.15 135.285 30.15C134.925 30.15 134.625 30.05 134.385 29.85C134.165 29.63 134.055 29.33 134.055 28.95V16.29C134.055 15.91 134.175 15.62 134.415 15.42C134.655 15.2 134.945 15.09 135.285 15.09C135.605 15.09 135.875 15.2 136.095 15.42C136.315 15.62 136.425 15.9 136.425 16.26V17.94C136.845 17.06 137.435 16.39 138.195 15.93C138.975 15.47 139.865 15.2 140.865 15.12L141.285 15.09ZM155.648 26.61C155.868 26.61 156.058 26.7 156.218 26.88C156.378 27.06 156.458 27.29 156.458 27.57C156.458 28.07 156.108 28.53 155.408 28.95C154.688 29.37 153.928 29.69 153.128 29.91C152.328 30.11 151.548 30.21 150.788 30.21C148.528 30.21 146.738 29.54 145.418 28.2C144.118 26.86 143.468 25.01 143.468 22.65C143.468 21.15 143.758 19.83 144.338 18.69C144.918 17.53 145.728 16.63 146.768 15.99C147.828 15.35 149.028 15.03 150.368 15.03C152.268 15.03 153.778 15.65 154.898 16.89C156.018 18.13 156.578 19.81 156.578 21.93C156.578 22.33 156.498 22.62 156.338 22.8C156.178 22.98 155.918 23.07 155.558 23.07H145.898C146.078 26.51 147.708 28.23 150.788 28.23C151.568 28.23 152.238 28.13 152.798 27.93C153.358 27.71 153.958 27.42 154.598 27.06C155.118 26.76 155.468 26.61 155.648 26.61ZM150.398 16.92C149.118 16.92 148.088 17.32 147.308 18.12C146.548 18.92 146.098 20.05 145.958 21.51H154.448C154.408 20.03 154.038 18.9 153.338 18.12C152.638 17.32 151.658 16.92 150.398 16.92ZM165.078 30.21C164.158 30.21 163.278 30.1 162.438 29.88C161.618 29.66 160.888 29.35 160.248 28.95C159.888 28.71 159.628 28.49 159.468 28.29C159.328 28.07 159.258 27.81 159.258 27.51C159.258 27.25 159.328 27.04 159.468 26.88C159.628 26.7 159.828 26.61 160.068 26.61C160.308 26.61 160.658 26.76 161.118 27.06C161.718 27.42 162.308 27.71 162.888 27.93C163.488 28.13 164.228 28.23 165.108 28.23C166.188 28.23 167.028 28.04 167.628 27.66C168.228 27.28 168.528 26.73 168.528 26.01C168.528 25.57 168.418 25.22 168.198 24.96C167.978 24.68 167.598 24.44 167.058 24.24C166.518 24.02 165.728 23.8 164.688 23.58C162.928 23.2 161.668 22.69 160.908 22.05C160.148 21.41 159.768 20.54 159.768 19.44C159.768 18.58 160.008 17.82 160.488 17.16C160.968 16.5 161.628 15.98 162.468 15.6C163.328 15.22 164.298 15.03 165.378 15.03C166.158 15.03 166.908 15.14 167.628 15.36C168.368 15.56 169.018 15.85 169.578 16.23C170.258 16.71 170.598 17.21 170.598 17.73C170.598 17.99 170.518 18.21 170.358 18.39C170.198 18.57 170.008 18.66 169.788 18.66C169.548 18.66 169.188 18.49 168.708 18.15C168.148 17.79 167.618 17.51 167.118 17.31C166.618 17.11 165.998 17.01 165.258 17.01C164.318 17.01 163.558 17.22 162.978 17.64C162.418 18.06 162.138 18.62 162.138 19.32C162.138 19.76 162.238 20.12 162.438 20.4C162.658 20.66 163.008 20.9 163.488 21.12C163.988 21.32 164.698 21.52 165.618 21.72C166.978 22.02 168.028 22.35 168.768 22.71C169.528 23.07 170.068 23.51 170.388 24.03C170.708 24.55 170.868 25.21 170.868 26.01C170.868 27.27 170.338 28.29 169.278 29.07C168.218 29.83 166.818 30.21 165.078 30.21ZM179.492 30.21C178.572 30.21 177.692 30.1 176.852 29.88C176.032 29.66 175.302 29.35 174.662 28.95C174.302 28.71 174.042 28.49 173.882 28.29C173.742 28.07 173.672 27.81 173.672 27.51C173.672 27.25 173.742 27.04 173.882 26.88C174.042 26.7 174.242 26.61 174.482 26.61C174.722 26.61 175.072 26.76 175.532 27.06C176.132 27.42 176.722 27.71 177.302 27.93C177.902 28.13 178.642 28.23 179.522 28.23C180.602 28.23 181.442 28.04 182.042 27.66C182.642 27.28 182.942 26.73 182.942 26.01C182.942 25.57 182.832 25.22 182.612 24.96C182.392 24.68 182.012 24.44 181.472 24.24C180.932 24.02 180.142 23.8 179.102 23.58C177.342 23.2 176.082 22.69 175.322 22.05C174.562 21.41 174.182 20.54 174.182 19.44C174.182 18.58 174.422 17.82 174.902 17.16C175.382 16.5 176.042 15.98 176.882 15.6C177.742 15.22 178.712 15.03 179.792 15.03C180.572 15.03 181.322 15.14 182.042 15.36C182.782 15.56 183.432 15.85 183.992 16.23C184.672 16.71 185.012 17.21 185.012 17.73C185.012 17.99 184.932 18.21 184.772 18.39C184.612 18.57 184.422 18.66 184.202 18.66C183.962 18.66 183.602 18.49 183.122 18.15C182.562 17.79 182.032 17.51 181.532 17.31C181.032 17.11 180.412 17.01 179.672 17.01C178.732 17.01 177.972 17.22 177.392 17.64C176.832 18.06 176.552 18.62 176.552 19.32C176.552 19.76 176.652 20.12 176.852 20.4C177.072 20.66 177.422 20.9 177.902 21.12C178.402 21.32 179.112 21.52 180.032 21.72C181.392 22.02 182.442 22.35 183.182 22.71C183.942 23.07 184.482 23.51 184.802 24.03C185.122 24.55 185.282 25.21 185.282 26.01C185.282 27.27 184.752 28.29 183.692 29.07C182.632 29.83 181.232 30.21 179.492 30.21Z" fill="rgba(40, 45, 62, 0.85)"></path></svg> 